<?xml version="1.0" standalone="no"?>
<!DOCTYPE svg PUBLIC "-//W3C//DTD SVG 20010904//EN"
 "http://www.w3.org/TR/2001/REC-SVG-20010904/DTD/svg10.dtd">
<svg version="1.0" xmlns="http://www.w3.org/2000/svg"
 width="16.000000pt" height="16.000000pt" viewBox="0 0 16.000000 16.000000"
 preserveAspectRatio="xMidYMid meet">
<metadata>
Created by potrace 1.11, written by Peter Selinger 2001-2013
</metadata>
<g transform="translate(0.000000,16.000000) scale(0.004000,-0.004000)"
fill="#000000" stroke="none">
<path d="M528 2856 c-180 -74 -280 -193 -323 -383 -28 -124 -55 -320 -55 -397
0 -88 26 -155 78 -206 83 -80 -37 -74 1518 -78 1321 -2 1391 -2 1406 15 24 27
84 379 68 398 -11 13 -182 15 -1294 15 -1393 0 -1316 -3 -1330 54 -8 32 20
177 36 188 7 4 301 8 653 8 702 0 669 -3 695 60 18 44 -1 124 -49 197 -42 64
-76 92 -154 129 l-52 24 -570 0 -570 0 -57 -24z"/>
<path d="M2542 2860 c-81 -29 -138 -66 -201 -130 -60 -60 -115 -159 -126 -222
l-6 -38 649 0 649 0 21 -23 c14 -15 22 -36 22 -58 0 -19 -28 -193 -62 -388
-67 -380 -71 -394 -137 -438 l-34 -23 -640 0 -640 0 5 -79 c8 -139 76 -243
197 -303 l46 -23 590 0 590 0 79 38 c91 45 185 133 228 213 37 68 54 147 139
629 90 507 94 583 40 683 -38 70 -90 120 -160 154 -46 23 -47 23 -621 25 -546
2 -578 2 -628 -17z"/>
<path d="M38 1509 c-29 -28 -30 -34 -25 -86 12 -117 101 -231 214 -273 54 -20
68 -21 647 -18 l591 3 67 33 c79 38 178 126 224 197 27 43 64 139 64 167 0 4
-394 8 -876 8 l-876 0 -30 -31z"/>
</g>
</svg>
